<svg xmlns="http://www.w3.org/2000/svg" xmlns:xlink="http://www.w3.org/1999/xlink" width="50px" height="50px" viewBox="0 0 50 50">
<path fill="#FFFFFF" d="M34.034,19.722h-1.506V16.71c0-4.155-3.373-7.528-7.528-7.528s-7.528,3.373-7.528,7.528v3.011h-1.505
	c-1.664,0-3.011,1.348-3.011,3.011v15.055c0,1.663,1.347,3.012,3.011,3.012h18.067c1.661,0,3.01-1.349,3.01-3.012V22.732
	C37.044,21.069,35.695,19.722,34.034,19.722z M25,12.042c2.572,0,4.666,2.094,4.666,4.668v3.011h-9.183V16.71h-0.15
	C20.333,14.136,22.424,12.042,25,12.042z M34.034,37.787H15.967V22.732h18.067V37.787z M25,33.271c1.661,0,3.011-1.348,3.011-3.01
	c0-1.663-1.35-3.012-3.011-3.012c-1.665,0-3.011,1.349-3.011,3.012C21.989,31.923,23.335,33.271,25,33.271z"/>
</svg>
