<svg xmlns="http://www.w3.org/2000/svg" xmlns:xlink="http://www.w3.org/1999/xlink" width="50px" height="50px" viewBox="0 0 50 50">
<path fill="#FFFFFF" d="M31.791,29.078h-1.438l-0.498-0.496c1.773-2.054,2.84-4.721,2.84-7.643c0-6.493-5.264-11.757-11.756-11.757
	c-6.493,0-11.757,5.264-11.757,11.757s5.264,11.757,11.757,11.757c2.921,0,5.588-1.067,7.641-2.832l0.498,0.498v1.429l9.043,9.026
	l2.695-2.695L31.791,29.078z M20.939,29.078c-4.497,0-8.14-3.644-8.14-8.139c0-4.496,3.643-8.14,8.14-8.14
	c4.493,0,8.139,3.644,8.139,8.14C29.078,25.435,25.432,29.078,20.939,29.078z"/>
</svg>
